<svg xmlns="http://www.w3.org/2000/svg" xmlns:xlink="http://www.w3.org/1999/xlink" viewBox="0 0 429.68 382.91"><defs><style>.cls-1{fill:#0a0a0e;}.cls-2{fill:url(#linear-gradient);}.cls-3{fill:url(#linear-gradient-2);}.cls-4{fill:url(#linear-gradient-3);}.cls-5{fill:url(#linear-gradient-4);}.cls-6{fill:url(#linear-gradient-5);}.cls-7{fill:url(#linear-gradient-6);}.cls-8{fill:#1a171b;}.cls-9{fill:url(#linear-gradient-7);}.cls-10{fill:url(#linear-gradient-8);}.cls-11{fill:url(#linear-gradient-9);}.cls-12{fill:url(#linear-gradient-10);}.cls-13{fill:url(#linear-gradient-11);}.cls-14{fill:url(#linear-gradient-12);}.cls-15{fill:url(#linear-gradient-13);}.cls-16{fill:url(#linear-gradient-14);}.cls-17{fill:url(#linear-gradient-15);}.cls-18{fill:url(#linear-gradient-16);}.cls-19{fill:url(#linear-gradient-17);}.cls-20{fill:url(#linear-gradient-18);}.cls-21{fill:url(#linear-gradient-19);}.cls-22{fill:url(#linear-gradient-20);}.cls-23{fill:url(#linear-gradient-21);}.cls-24{fill:url(#linear-gradient-22);}.cls-25{fill:url(#linear-gradient-23);}.cls-26{fill:url(#linear-gradient-24);}.cls-27{fill:url(#linear-gradient-25);}.cls-28{fill:url(#linear-gradient-26);}.cls-29{fill:url(#linear-gradient-27);}.cls-30{fill:url(#linear-gradient-28);}.cls-31{fill:url(#linear-gradient-29);}.cls-32{fill:url(#linear-gradient-30);}.cls-33{fill:url(#linear-gradient-31);}.cls-34{fill:url(#linear-gradient-32);}.cls-35{fill:url(#linear-gradient-33);}.cls-36{fill:url(#linear-gradient-34);}.cls-37{fill:url(#linear-gradient-35);}.cls-38{fill:url(#linear-gradient-36);}.cls-39{fill:url(#linear-gradient-37);}.cls-40{fill:url(#linear-gradient-38);}.cls-41{fill:url(#linear-gradient-39);}.cls-42{fill:url(#linear-gradient-40);}.cls-43{fill:url(#linear-gradient-41);}.cls-44{fill:url(#linear-gradient-42);}.cls-45{fill:url(#linear-gradient-43);}.cls-46{fill:url(#linear-gradient-44);}.cls-47{fill:#ed8500;}.cls-48{fill:#ffee1a;}.cls-49{fill:#8b6d00;}.cls-50{fill:#ceab00;}.cls-51{fill:url(#linear-gradient-45);}.cls-52{fill:url(#linear-gradient-46);}.cls-53{fill:url(#linear-gradient-47);}.cls-54{fill:url(#linear-gradient-48);}.cls-55{fill:url(#linear-gradient-49);}.cls-56{fill:url(#linear-gradient-50);}.cls-57{fill:url(#linear-gradient-51);}.cls-58{fill:url(#linear-gradient-52);}.cls-59{fill:url(#linear-gradient-53);}.cls-60{fill:url(#linear-gradient-54);}.cls-61{fill:url(#linear-gradient-55);}.cls-62{fill:url(#linear-gradient-56);}.cls-63{fill:url(#radial-gradient);}.cls-64{fill:url(#linear-gradient-57);}.cls-65{fill:url(#linear-gradient-58);}.cls-66{fill:url(#linear-gradient-59);}.cls-67{fill:url(#linear-gradient-60);}.cls-68{fill:url(#linear-gradient-61);}.cls-69{fill:url(#linear-gradient-62);}.cls-70{fill:url(#linear-gradient-63);}.cls-71{fill:url(#linear-gradient-64);}.cls-72{fill:url(#linear-gradient-65);}.cls-73{fill:url(#linear-gradient-66);}.cls-74{fill:url(#linear-gradient-67);}.cls-75{fill:url(#linear-gradient-68);}.cls-76{fill:url(#radial-gradient-2);}.cls-77{fill:url(#radial-gradient-3);}.cls-78{fill:url(#linear-gradient-69);}.cls-79{fill:url(#linear-gradient-70);}.cls-80{fill:url(#radial-gradient-4);}.cls-81{fill:url(#linear-gradient-71);}.cls-82{fill:url(#linear-gradient-72);}.cls-83{fill:url(#linear-gradient-73);}.cls-84{fill:url(#linear-gradient-74);}.cls-85{fill:url(#linear-gradient-75);}.cls-86{fill:url(#linear-gradient-76);}.cls-87{fill:url(#linear-gradient-77);}.cls-88{fill:url(#linear-gradient-78);}.cls-89{fill:url(#linear-gradient-79);}.cls-90{fill:url(#linear-gradient-80);}.cls-91{fill:url(#linear-gradient-81);}.cls-92{fill:url(#linear-gradient-82);}.cls-93{fill:url(#linear-gradient-83);}.cls-94{fill:url(#linear-gradient-84);}.cls-95{fill:url(#linear-gradient-85);}.cls-96{fill:url(#linear-gradient-86);}.cls-97{fill:url(#linear-gradient-87);}.cls-98{fill:url(#linear-gradient-88);}.cls-99{fill:#fff;}.cls-100{fill:url(#radial-gradient-5);}.cls-101{fill:url(#linear-gradient-89);}.cls-102{fill:url(#linear-gradient-90);}.cls-103{fill:url(#linear-gradient-91);}.cls-104{fill:url(#linear-gradient-92);}.cls-105{fill:url(#linear-gradient-93);}.cls-106{fill:url(#linear-gradient-94);}.cls-107{fill:url(#linear-gradient-95);}.cls-108{fill:url(#linear-gradient-96);}.cls-109{fill:url(#linear-gradient-97);}.cls-110{fill:url(#linear-gradient-98);}.cls-111{fill:url(#linear-gradient-99);}.cls-112{fill:url(#linear-gradient-100);}</style><linearGradient id="linear-gradient" x1="98.93" y1="413.63" x2="124.98" y2="401.71" gradientTransform="translate(-114.79 -41.37) rotate(-13.9)" gradientUnits="userSpaceOnUse"><stop offset="0" stop-color="#837463"/><stop offset="1" stop-color="#6c5c4f"/></linearGradient><linearGradient id="linear-gradient-2" x1="98.87" y1="413.49" x2="124.92" y2="401.57" gradientTransform="translate(-114.79 -41.37) rotate(-13.9)" gradientUnits="userSpaceOnUse"><stop offset="0" stop-color="#b8a69d"/><stop offset="1" stop-color="#897468"/></linearGradient><linearGradient id="linear-gradient-3" x1="123.78" y1="410.83" x2="121.13" y2="417.31" xlink:href="#linear-gradient"/><linearGradient id="linear-gradient-4" x1="124.34" y1="414.11" x2="115.51" y2="432.66" xlink:href="#linear-gradient"/><linearGradient id="linear-gradient-5" x1="132.79" y1="304.45" x2="132.79" y2="355.42" gradientUnits="userSpaceOnUse"><stop offset="0" stop-color="#cfc3bd"/><stop offset="1" stop-color="#a5978c"/></linearGradient><linearGradient id="linear-gradient-6" x1="129.87" y1="341.74" x2="129.87" y2="371.61" gradientUnits="userSpaceOnUse"><stop offset="0" stop-color="#e6dacd"/><stop offset="1" stop-color="#dbccbf"/></linearGradient><linearGradient id="linear-gradient-7" x1="-444.99" y1="433.57" x2="-448.82" y2="436.91" gradientTransform="matrix(-0.98, 0.21, 0.21, 0.98, -396.52, 35.43)" gradientUnits="userSpaceOnUse"><stop offset="0" stop-color="#727375"/><stop offset="1" stop-color="#1a171b"/></linearGradient><linearGradient id="linear-gradient-8" x1="-402.42" y1="376.38" x2="-406.25" y2="379.73" gradientTransform="matrix(-1, 0.07, 0.07, 1, -313.69, 14.73)" xlink:href="#linear-gradient-7"/><linearGradient id="linear-gradient-9" x1="-397.98" y1="385.15" x2="-401.51" y2="388.24" gradientTransform="matrix(-0.99, 0.11, 0.11, 0.99, -334.58, 19)" xlink:href="#linear-gradient-7"/><linearGradient id="linear-gradient-10" x1="139.71" y1="348.12" x2="144.03" y2="316.8" gradientTransform="matrix(1, 0, 0, 1, 0, 0)" xlink:href="#linear-gradient"/><linearGradient id="linear-gradient-11" x1="123.5" y1="345.89" x2="127.82" y2="314.56" gradientTransform="matrix(1, 0, 0, 1, 0, 0)" xlink:href="#linear-gradient-2"/><linearGradient id="linear-gradient-12" x1="414.18" y1="304.45" x2="414.18" y2="355.42" gradientTransform="matrix(-1, 0, 0, 1, 712.1, 0)" xlink:href="#linear-gradient-5"/><linearGradient id="linear-gradient-13" x1="411.26" y1="341.74" x2="411.26" y2="371.61" gradientTransform="matrix(-1, 0, 0, 1, 712.1, 0)" xlink:href="#linear-gradient-6"/><linearGradient id="linear-gradient-14" x1="-719.97" y1="493.3" x2="-723.79" y2="496.65" gradientTransform="translate(1108.63 35.43) rotate(12.26)" xlink:href="#linear-gradient-7"/><linearGradient id="linear-gradient-15" x1="-683.06" y1="396.78" x2="-686.89" y2="400.13" gradientTransform="translate(1025.79 14.73) rotate(4.16)" xlink:href="#linear-gradient-7"/><linearGradient id="linear-gradient-16" x1="-677.66" y1="416.02" x2="-681.2" y2="419.11" gradientTransform="translate(1046.68 19) rotate(6.3)" xlink:href="#linear-gradient-7"/><linearGradient id="linear-gradient-17" x1="421.1" y1="348.12" x2="425.42" y2="316.8" gradientTransform="matrix(-1, 0, 0, 1, 712.1, 0)" xlink:href="#linear-gradient"/><linearGradient id="linear-gradient-18" x1="404.89" y1="345.89" x2="409.21" y2="314.56" gradientTransform="matrix(-1, 0, 0, 1, 712.1, 0)" xlink:href="#linear-gradient-2"/><linearGradient id="linear-gradient-19" x1="215.08" y1="338.03" x2="215.08" y2="251.34" gradientTransform="matrix(1, 0, 0, 1, 0, 0)" xlink:href="#linear-gradient-2"/><linearGradient id="linear-gradient-20" x1="171.05" y1="295.41" x2="162.92" y2="215.38" gradientTransform="matrix(1, 0, 0, 1, 0, 0)" xlink:href="#linear-gradient-2"/><linearGradient id="linear-gradient-21" x1="-78.14" y1="295.41" x2="-86.27" y2="215.38" gradientTransform="matrix(-1, 0, 0, 1, 180.63, 0)" xlink:href="#linear-gradient-2"/><linearGradient id="linear-gradient-22" x1="215.13" y1="355.04" x2="215.13" y2="302.38" gradientTransform="matrix(1, 0, 0, 1, 0, 0)" xlink:href="#linear-gradient"/><linearGradient id="linear-gradient-23" x1="215.08" y1="355.04" x2="215.08" y2="302.38" gradientTransform="matrix(1, 0, 0, 1, 0, 0)" xlink:href="#linear-gradient"/><linearGradient id="linear-gradient-24" x1="214.92" y1="160.01" x2="214.92" y2="226.99" gradientUnits="userSpaceOnUse"><stop offset="0" stop-color="#1a171b"/><stop offset="0.22" stop-color="#1f1c1e"/><stop offset="0.49" stop-color="#2e2926"/><stop offset="0.78" stop-color="#453f34"/><stop offset="1" stop-color="#5d5541"/></linearGradient><linearGradient id="linear-gradient-25" x1="-410.19" y1="286.01" x2="-410.19" y2="349.84" gradientTransform="matrix(-1, 0, 0, 1, -159.66, 0)" xlink:href="#linear-gradient-5"/><linearGradient id="linear-gradient-26" x1="-409.64" y1="326.43" x2="-409.64" y2="372.09" gradientTransform="matrix(-1, 0, 0, 1, -159.66, 0)" xlink:href="#linear-gradient-6"/><linearGradient id="linear-gradient-27" x1="-261.79" y1="417.26" x2="-261.79" y2="425.9" gradientTransform="matrix(-1.58, -0.25, -0.33, 2.13, -20.77, -625.96)" gradientUnits="userSpaceOnUse"><stop offset="0" stop-color="ivory"/><stop offset="1" stop-color="#d9d6cc"/></linearGradient><linearGradient id="linear-gradient-28" x1="-427.23" y1="362.02" x2="-427.23" y2="372.64" gradientTransform="matrix(-1, 0, 0, 1, -159.66, 0)" gradientUnits="userSpaceOnUse"><stop offset="0" stop-color="#e8dad4"/><stop offset="1" stop-color="#beaea1"/></linearGradient><linearGradient id="linear-gradient-29" x1="-402.9" y1="361.68" x2="-402.9" y2="372.63" xlink:href="#linear-gradient-28"/><linearGradient id="linear-gradient-30" x1="-382.51" y1="358.09" x2="-382.51" y2="368.07" xlink:href="#linear-gradient-28"/><linearGradient id="linear-gradient-31" x1="-422.15" y1="365.48" x2="-426.47" y2="369.26" gradientTransform="matrix(-1, 0, 0, 1, -159.66, 0)" gradientUnits="userSpaceOnUse"><stop offset="0" stop-color="#fff"/><stop offset="1" stop-color="#1a171b"/></linearGradient><linearGradient id="linear-gradient-32" x1="-403.15" y1="405.46" x2="-407.47" y2="409.24" gradientTransform="matrix(-0.99, 0.12, 0.12, 0.99, -231.06, 6.09)" xlink:href="#linear-gradient-31"/><linearGradient id="linear-gradient-33" x1="-397.21" y1="363.26" x2="-402.05" y2="367.5" xlink:href="#linear-gradient-31"/><linearGradient id="linear-gradient-34" x1="180.4" y1="286.01" x2="180.4" y2="349.84" xlink:href="#linear-gradient-5"/><linearGradient id="linear-gradient-35" x1="180.94" y1="326.43" x2="180.94" y2="372.09" xlink:href="#linear-gradient-6"/><linearGradient id="linear-gradient-36" x1="102.53" y1="459.39" x2="102.53" y2="468.03" gradientTransform="matrix(1.58, -0.25, 0.33, 2.13, -138.9, -625.96)" xlink:href="#linear-gradient-27"/><linearGradient id="linear-gradient-37" x1="163.36" y1="362.02" x2="163.36" y2="372.64" gradientTransform="matrix(1, 0, 0, 1, 0, 0)" xlink:href="#linear-gradient-28"/><linearGradient id="linear-gradient-38" x1="187.68" y1="361.68" x2="187.68" y2="372.63" gradientTransform="matrix(1, 0, 0, 1, 0, 0)" xlink:href="#linear-gradient-28"/><linearGradient id="linear-gradient-39" x1="208.07" y1="358.09" x2="208.07" y2="368.07" gradientTransform="matrix(1, 0, 0, 1, 0, 0)" xlink:href="#linear-gradient-28"/><linearGradient id="linear-gradient-40" x1="168.43" y1="365.48" x2="164.11" y2="369.26" gradientTransform="matrix(1, 0, 0, 1, 0, 0)" xlink:href="#linear-gradient-31"/><linearGradient id="linear-gradient-41" x1="183.28" y1="335.35" x2="178.96" y2="339.14" gradientTransform="translate(71.4 6.09) rotate(6.82)" xlink:href="#linear-gradient-31"/><linearGradient id="linear-gradient-42" x1="193.38" y1="363.26" x2="188.53" y2="367.5" gradientTransform="matrix(1, 0, 0, 1, 0, 0)" xlink:href="#linear-gradient-31"/><linearGradient id="linear-gradient-43" x1="215.38" y1="225.1" x2="215.38" y2="211.6" gradientUnits="userSpaceOnUse"><stop offset="0" stop-color="#ba111a"/><stop offset="1" stop-color="#450c0b"/></linearGradient><linearGradient id="linear-gradient-44" x1="215.39" y1="225.58" x2="215.39" y2="213.62" gradientUnits="userSpaceOnUse"><stop offset="0" stop-color="#e2001a"/><stop offset="1" stop-color="#670d0e"/></linearGradient><linearGradient id="linear-gradient-45" x1="380.02" y1="41.93" x2="330.6" y2="118.9" gradientTransform="matrix(1, 0, 0, 1, 0, 0)" xlink:href="#linear-gradient"/><linearGradient id="linear-gradient-46" x1="381.7" y1="43.01" x2="332.28" y2="119.98" gradientTransform="matrix(1, 0, 0, 1, 0, 0)" xlink:href="#linear-gradient-2"/><linearGradient id="linear-gradient-47" x1="411.26" y1="41.93" x2="361.84" y2="118.9" gradientTransform="matrix(-1, 0, 0, 1, 460.91, 0)" xlink:href="#linear-gradient"/><linearGradient id="linear-gradient-48" x1="412.94" y1="43.01" x2="363.52" y2="119.98" gradientTransform="matrix(-1, 0, 0, 1, 460.91, 0)" xlink:href="#linear-gradient-2"/><linearGradient id="linear-gradient-49" x1="21.4" y1="76.13" x2="48.73" y2="102.27" gradientTransform="matrix(1, 0, 0, 1, 0, 0)" xlink:href="#linear-gradient-27"/><linearGradient id="linear-gradient-50" x1="208.57" y1="13.14" x2="208.57" y2="4.23" gradientUnits="userSpaceOnUse"><stop offset="0" stop-color="#867168"/><stop offset="1" stop-color="#634f3e"/></linearGradient><linearGradient id="linear-gradient-51" x1="214.38" y1="14.2" x2="214.38" y2="197.52" gradientTransform="matrix(1, 0, 0, 1, 0, 0)" xlink:href="#linear-gradient"/><linearGradient id="linear-gradient-52" x1="214.37" y1="14.95" x2="214.37" y2="185.26" gradientTransform="matrix(1, 0, 0, 1, 0, 0)" xlink:href="#linear-gradient-2"/><linearGradient id="linear-gradient-53" x1="213.91" y1="101.13" x2="213.91" y2="178.92" xlink:href="#linear-gradient-50"/><linearGradient id="linear-gradient-54" x1="149.64" y1="134.05" x2="172.32" y2="53.03" gradientTransform="matrix(1, 0, 0, 1, 0, 0)" xlink:href="#linear-gradient-2"/><linearGradient id="linear-gradient-55" x1="-356.09" y1="134.05" x2="-333.4" y2="53.03" gradientTransform="matrix(-1, 0, 0, 1, -77.51, 0)" xlink:href="#linear-gradient-2"/><linearGradient id="linear-gradient-56" x1="214.57" y1="185.48" x2="214.57" y2="200.22" gradientUnits="userSpaceOnUse"><stop offset="0" stop-color="#121319"/><stop offset="1" stop-color="#5e593d"/></linearGradient><radialGradient id="radial-gradient" cx="271.11" cy="111.67" r="208.07" gradientTransform="translate(71.16 103.86) scale(0.53)" gradientUnits="userSpaceOnUse"><stop offset="0" stop-color="#1a171b"/><stop offset="0.19" stop-color="#1f1c1f"/><stop offset="0.42" stop-color="#2e2b2b"/><stop offset="0.66" stop-color="#454240"/><stop offset="0.79" stop-color="#54514c"/></radialGradient><linearGradient id="linear-gradient-57" x1="135.45" y1="122.41" x2="139.05" y2="133.21" gradientUnits="userSpaceOnUse"><stop offset="0" stop-color="#837d76"/><stop offset="1" stop-color="#45413d"/></linearGradient><linearGradient id="linear-gradient-58" x1="-13.86" y1="122.41" x2="-10.26" y2="133.21" gradientTransform="matrix(-1, 0, 0, 1, 282.52, 0)" xlink:href="#linear-gradient-57"/><linearGradient id="linear-gradient-59" x1="214.57" y1="187.02" x2="214.57" y2="152.81" gradientUnits="userSpaceOnUse"><stop offset="0" stop-color="#f19ca0"/><stop offset="1" stop-color="#e85269"/></linearGradient><linearGradient id="linear-gradient-60" x1="214.57" y1="187.83" x2="214.57" y2="157.14" gradientUnits="userSpaceOnUse"><stop offset="0" stop-color="#ed7b7b"/><stop offset="1" stop-color="#c81b49"/></linearGradient><linearGradient id="linear-gradient-61" x1="214.44" y1="165.41" x2="214.44" y2="162.58" gradientUnits="userSpaceOnUse"><stop offset="0" stop-color="#b11a41"/><stop offset="1" stop-color="#841022"/></linearGradient><linearGradient id="linear-gradient-62" x1="214.37" y1="176.48" x2="214.37" y2="146.37" xlink:href="#linear-gradient-59"/><linearGradient id="linear-gradient-63" x1="214.93" y1="97.71" x2="214.93" y2="157.85" gradientUnits="userSpaceOnUse"><stop offset="0" stop-color="#cdc2b7"/><stop offset="1" stop-color="#c2b5a9"/></linearGradient><linearGradient id="linear-gradient-64" x1="214.93" y1="99.07" x2="214.93" y2="154.12" gradientUnits="userSpaceOnUse"><stop offset="0" stop-color="#fffcfc"/><stop offset="1" stop-color="#dacdc5"/></linearGradient><linearGradient id="linear-gradient-65" x1="214.44" y1="146.76" x2="214.44" y2="136.07" xlink:href="#linear-gradient-63"/><linearGradient id="linear-gradient-66" x1="214.41" y1="146.76" x2="214.41" y2="136.07" gradientUnits="userSpaceOnUse"><stop offset="0" stop-color="#a79e95"/><stop offset="1" stop-color="#9c9288"/></linearGradient><linearGradient id="linear-gradient-67" x1="214.4" y1="102.03" x2="214.4" y2="116.98" gradientUnits="userSpaceOnUse"><stop offset="0" stop-color="#242426"/><stop offset="1" stop-color="#1a171b"/></linearGradient><linearGradient id="linear-gradient-68" x1="214.42" y1="103.03" x2="214.42" y2="116.3" gradientUnits="userSpaceOnUse"><stop offset="0" stop-color="#373739"/><stop offset="1" stop-color="#1a171b"/></linearGradient><radialGradient id="radial-gradient-2" cx="270.77" cy="30.7" r="69.7" gradientTransform="translate(71.16 103.86) scale(0.53)" xlink:href="#linear-gradient-68"/><radialGradient id="radial-gradient-3" cx="270.6" cy="47.61" r="31.26" gradientTransform="translate(71.16 103.86) scale(0.53)" gradientUnits="userSpaceOnUse"><stop offset="0" stop-color="#6a6a6b"/><stop offset="1" stop-color="#4e4e50"/></radialGradient><linearGradient id="linear-gradient-69" x1="213.96" y1="124.72" x2="213.96" y2="134.44" xlink:href="#linear-gradient-68"/><linearGradient id="linear-gradient-70" x1="214.3" y1="107.41" x2="214.3" y2="102" gradientUnits="userSpaceOnUse"><stop offset="0" stop-color="#373739"/><stop offset="1" stop-color="#fff"/></linearGradient><radialGradient id="radial-gradient-4" cx="343.04" cy="-25.53" r="43.87" gradientTransform="translate(72 88.68) scale(0.58)" xlink:href="#radial-gradient"/><linearGradient id="linear-gradient-71" x1="-89.33" y1="34.9" x2="-93.92" y2="46.78" gradientTransform="matrix(-1, 0, 0, 1, 86.26, 0)" gradientUnits="userSpaceOnUse"><stop offset="0" stop-color="#6a5e59"/><stop offset="1" stop-color="#13110a"/></linearGradient><linearGradient id="linear-gradient-72" x1="-89.33" y1="34.9" x2="-93.92" y2="46.78" xlink:href="#linear-gradient-71"/><linearGradient id="linear-gradient-73" x1="-90.98" y1="38.56" x2="-93.68" y2="46.39" xlink:href="#linear-gradient-71"/><linearGradient id="linear-gradient-74" x1="-89.83" y1="36.1" x2="-93.34" y2="45.28" xlink:href="#linear-gradient-71"/><linearGradient id="linear-gradient-75" x1="252.64" y1="34.9" x2="248.05" y2="46.78" gradientTransform="matrix(1, 0, 0, 1, 0, 0)" xlink:href="#linear-gradient-71"/><linearGradient id="linear-gradient-76" x1="252.64" y1="34.9" x2="248.05" y2="46.78" gradientTransform="matrix(1, 0, 0, 1, 0, 0)" xlink:href="#linear-gradient-71"/><linearGradient id="linear-gradient-77" x1="250.99" y1="38.56" x2="248.29" y2="46.39" gradientTransform="matrix(1, 0, 0, 1, 0, 0)" xlink:href="#linear-gradient-71"/><linearGradient id="linear-gradient-78" x1="252.14" y1="36.1" x2="248.63" y2="45.28" gradientTransform="matrix(1, 0, 0, 1, 0, 0)" xlink:href="#linear-gradient-71"/><linearGradient id="linear-gradient-79" x1="-523.6" y1="73.86" x2="-523.6" y2="77.64" gradientTransform="matrix(-1, 0, 0, 1, -252.41, 0)" gradientUnits="userSpaceOnUse"><stop offset="0" stop-color="#523e37"/><stop offset="1" stop-color="#1a171b"/></linearGradient><linearGradient id="linear-gradient-80" x1="-522.83" y1="73.59" x2="-522.83" y2="78.09" gradientTransform="matrix(-1, 0, 0, 1, -252.41, 0)" gradientUnits="userSpaceOnUse"><stop offset="0" stop-color="#736b5f"/><stop offset="1" stop-color="#1a171b"/></linearGradient><linearGradient id="linear-gradient-81" x1="-520.76" y1="95.91" x2="-520.76" y2="87.63" gradientTransform="matrix(-1, 0, 0, 1, -252.41, 0)" gradientUnits="userSpaceOnUse"><stop offset="0" stop-color="#fff"/><stop offset="1" stop-color="#91c0cc"/></linearGradient><linearGradient id="linear-gradient-82" x1="-518.7" y1="92.53" x2="-518.7" y2="108.57" gradientTransform="matrix(-1, 0, 0, 1, -252.41, 0)" gradientUnits="userSpaceOnUse"><stop offset="0" stop-color="#0e0603"/><stop offset="1" stop-color="#4f1b0e"/></linearGradient><linearGradient id="linear-gradient-83" x1="-518.7" y1="92.97" x2="-518.7" y2="107.68" gradientTransform="matrix(-1, 0, 0, 1, -252.41, 0)" gradientUnits="userSpaceOnUse"><stop offset="0" stop-color="#3a180d"/><stop offset="1" stop-color="#7d2b15"/></linearGradient><linearGradient id="linear-gradient-84" x1="-518.7" y1="87.58" x2="-518.7" y2="101.57" xlink:href="#linear-gradient-82"/><linearGradient id="linear-gradient-85" x1="-518.7" y1="107.2" x2="-518.7" y2="103.36" gradientTransform="matrix(-1, 0, 0, 1, -252.41, 0)" gradientUnits="userSpaceOnUse"><stop offset="0" stop-color="#3a180d"/><stop offset="1" stop-color="#1a171b"/></linearGradient><linearGradient id="linear-gradient-86" x1="-525.84" y1="84.69" x2="-522.43" y2="91.86" gradientTransform="matrix(-1, 0, 0, 1, -252.41, 0)" gradientUnits="userSpaceOnUse"><stop offset="0" stop-color="#fff"/><stop offset="1" stop-color="#7d2b15"/></linearGradient><linearGradient id="linear-gradient-87" x1="-507.41" y1="110.37" x2="-511.84" y2="103.55" xlink:href="#linear-gradient-86"/><linearGradient id="linear-gradient-88" x1="-506.07" y1="92.56" x2="-509.82" y2="95.97" xlink:href="#linear-gradient-86"/><radialGradient id="radial-gradient-5" cx="146.73" cy="-25.53" r="43.87" gradientTransform="translate(72 88.68) scale(0.58)" xlink:href="#radial-gradient"/><linearGradient id="linear-gradient-89" x1="156.9" y1="73.86" x2="156.9" y2="77.64" gradientTransform="matrix(1, 0, 0, 1, 0, 0)" xlink:href="#linear-gradient-79"/><linearGradient id="linear-gradient-90" x1="157.68" y1="73.59" x2="157.68" y2="78.09" gradientTransform="matrix(1, 0, 0, 1, 0, 0)" xlink:href="#linear-gradient-80"/><linearGradient id="linear-gradient-91" x1="159.75" y1="95.91" x2="159.75" y2="87.63" gradientTransform="matrix(1, 0, 0, 1, 0, 0)" xlink:href="#linear-gradient-81"/><linearGradient id="linear-gradient-92" x1="161.81" y1="92.53" x2="161.81" y2="108.57" gradientTransform="matrix(1, 0, 0, 1, 0, 0)" xlink:href="#linear-gradient-82"/><linearGradient id="linear-gradient-93" x1="161.81" y1="92.97" x2="161.81" y2="107.68" gradientTransform="matrix(1, 0, 0, 1, 0, 0)" xlink:href="#linear-gradient-83"/><linearGradient id="linear-gradient-94" x1="161.81" y1="87.58" x2="161.81" y2="101.57" gradientTransform="matrix(1, 0, 0, 1, 0, 0)" xlink:href="#linear-gradient-82"/><linearGradient id="linear-gradient-95" x1="161.81" y1="107.2" x2="161.81" y2="103.36" gradientTransform="matrix(1, 0, 0, 1, 0, 0)" xlink:href="#linear-gradient-85"/><linearGradient id="linear-gradient-96" x1="154.66" y1="84.69" x2="158.07" y2="91.85" gradientTransform="matrix(1, 0, 0, 1, 0, 0)" xlink:href="#linear-gradient-86"/><linearGradient id="linear-gradient-97" x1="173.1" y1="110.37" x2="168.66" y2="103.55" gradientTransform="matrix(1, 0, 0, 1, 0, 0)" xlink:href="#linear-gradient-86"/><linearGradient id="linear-gradient-98" x1="174.44" y1="92.56" x2="170.68" y2="95.97" gradientTransform="matrix(1, 0, 0, 1, 0, 0)" xlink:href="#linear-gradient-86"/><linearGradient id="linear-gradient-99" x1="274.71" y1="126.99" x2="250.55" y2="133.32" gradientUnits="userSpaceOnUse"><stop offset="0" stop-color="#1a171b"/><stop offset="1" stop-color="#54514c"/></linearGradient><linearGradient id="linear-gradient-100" x1="155.82" y1="128.3" x2="178" y2="132.65" xlink:href="#linear-gradient-99"/></defs><title>Houndgo</title><g id="图层_2" data-name="图层 2"><g id="图层_1-2" data-name="图层 1"><path class="cls-1" d="M320.58,159.26l0,.07v0Zm96.28-76.6c-24.71-36-72.49-55.77-134.56-55.77-1.72,0-3.46,0-5.2,0C263.77,17,247.18,11,227.74,9.24a10.49,10.49,0,0,0-4.2-5.86,3.37,3.37,0,0,0-3.58,0A25.69,25.69,0,0,0,213.84.17a3.37,3.37,0,0,0-4.42,2.88,27.66,27.66,0,0,0-10.14-1.85,25.56,25.56,0,0,0-4,.28,3.37,3.37,0,0,0-1.47,6,23.78,23.78,0,0,0-2.54.57A3.37,3.37,0,0,0,188.89,11c-14.28,2.81-26.75,8.14-37.22,15.94-1.43,0-2.88,0-4.3,0-62.06,0-109.85,19.81-134.56,55.77C4.19,95.21-.47,112,0,128.6c.54,17.83,6.86,33.49,17.79,44.11,9.62,9.34,22.44,14.92,34.31,14.92a33.75,33.75,0,0,0,22.67-8.44c7.8-6.87,13.06-17.15,16.09-31.44,7.18-33.78,19.41-56.1,28.63-69.07-.2,1-.36,1.94-.47,2.67-2.31,14.86-5.26,22.95-5.55,23.72-6.12,14.05-13,30-7.32,48.78.1.34.21.67.33,1l0,.1c.44,1.34,1,2.71,1.53,4.06l.11.26.39.88.07.15.08.17.41.88.08.16c.29.62.61,1.24.92,1.85l.06.12.07.13.42.79.25.46.42.75.31.54.14.23.28.48.23.38.13.21.72,1.16.14.21.3.48.41.61.46.68.43.62.42.61.08.11,0,.05.38.53.7,1,.42.55.82,1.08.22.27.18.23.67.84.43.53.72.87.08.09.34.4,1.08,1.26,0,0,.07.08,1.17,1.31.26.28.16.17.88.95.46.49.93,1,.13.14.28.29,1.38,1.4a99.14,99.14,0,0,0,29.34,19.87c-1.64,5.37-4.21,10.41-6.93,15.73a159.73,159.73,0,0,0-7.1,15.28c-3.88,7.09-5.56,13.82-7.19,20.32a99.34,99.34,0,0,1-4.7,15.12c-2.79,6.56-6.66,11.49-10.75,16.71-4.43,5.66-9,11.51-12,19.43a28.15,28.15,0,0,0-1.29,4.57c-.09-.81-.15-1.66-.19-2.55-.11-2.37,0-4.68.06-6.92.3-7.81.6-15.89-8.94-20.21a10.93,10.93,0,0,0-4.54-.9c-5.43,0-13.11,3.34-18,10.82-4.11,6.23-7.52,17.13-.43,33.64,5,11.75,14,19.46,26.11,22.49a41.26,41.26,0,0,0-2,10c-1,11.4,7.22,16.06,12.41,17.15a23.66,23.66,0,0,0,14.08,5,18.14,18.14,0,0,0,4.84-.64,28.46,28.46,0,0,0,10,1.77,34.61,34.61,0,0,0,11.63-2.07,37.9,37.9,0,0,0,13.37,2.47,35.23,35.23,0,0,0,12.36-2.22,45.74,45.74,0,0,0,10.41,1.24,29.23,29.23,0,0,0,14.66-3.48c.46,0,1,.05,1.68.05a21.66,21.66,0,0,0,11.3-2.9,21.67,21.67,0,0,0,11.3,2.9c.65,0,1.21,0,1.68-.05a29.23,29.23,0,0,0,14.66,3.48,45.59,45.59,0,0,0,10.41-1.24,35.23,35.23,0,0,0,12.36,2.22,38.12,38.12,0,0,0,13.27-2.43,34.84,34.84,0,0,0,11.52,2,28.47,28.47,0,0,0,10-1.77,18.24,18.24,0,0,0,4.84.64,23.67,23.67,0,0,0,14.08-5c5.2-1.09,13.41-5.76,12.41-17.15-1.22-14-6.3-19.82-15.14-23a26.09,26.09,0,0,0,5.94-28c-3-7.92-7.56-13.77-12-19.43-4.1-5.22-8-10.16-10.75-16.72A98.61,98.61,0,0,1,295.39,257c-1.86-7.42-3.78-15.09-9-23.32-1.89-4.47-3.92-8.44-5.88-12.28-2.81-5.5-5.46-10.71-7.1-16.31a98.47,98.47,0,0,0,28.09-19.3c.65-.65,1.27-1.29,1.88-1.92l.34-.36.17-.18,1.45-1.56.13-.14.22-.24q.86-.94,1.67-1.88l.36-.43c.44-.51.87-1,1.32-1.56l.36-.43c.51-.63,1-1.26,1.48-1.85l.11-.15c.46-.58.89-1.17,1.33-1.75l.17-.24.14-.19c.43-.59.84-1.17,1.26-1.77l.05-.08q.65-1,1.27-1.9l.12-.18.06-.09c.36-.56.71-1.12,1-1.67l0-.06.1-.16q1.13-1.88,2.12-3.81l0-.07,0-.09c.63-1.22,1.21-2.47,1.73-3.69l0-.11,0-.06a54.32,54.32,0,0,0,2-5.66c5.54-18.62-1.34-34.46-7.43-48.43-.31-.82-3.24-8.91-5.54-23.71-.18-1.18-.46-2.74-.88-4.6,9.4,12.65,22.39,35.36,30,71,3,14.29,8.3,24.58,16.09,31.44a33.77,33.77,0,0,0,22.67,8.44c11.87,0,24.7-5.58,34.32-14.92,10.93-10.62,17.25-26.29,17.79-44.11C430.14,112,425.49,95.21,416.86,82.66Z"/><path class="cls-2" d="M125.45,345.83s-34.94,9.56-47.83-20.46,10.5-42.79,18.52-39.16c9.73,4.41,6.41,13.37,6.9,24.22.61,13.5,6.27,21.65,27.59,19.56Z"/><path class="cls-3" d="M123.8,344c-6,1.3-33.4,5.69-44.22-19.51-5.49-12.79-3.73-21.35-1.28-26.28a19.25,19.25,0,0,1,12.07-10.17,7.9,7.9,0,0,1,4.89.07c5.91,2.68,6,7,5.72,15-.09,2.35-.18,4.78-.06,7.38.36,8,2.45,13.4,6.56,17,4.33,3.75,10.94,5.35,20.14,4.86L123.8,344Z"/><path class="cls-4" d="M125.45,345.83l2.32-7.09c-.83.26-1.66.5-2.47.71L123.8,344c-5.38,1.17-27.86,4.8-40.29-12.48a51.59,51.59,0,0,1-4.82-3.88C92.34,354.88,125.45,345.83,125.45,345.83Z"/><path class="cls-5" d="M83.51,331.55C95.94,348.83,118.42,345.2,123.8,344l1.5-4.58C106.28,344.5,91.58,337.31,83.51,331.55Z"/><path class="cls-6" d="M151.73,376.79s-10.8,5-21.6.36c0,0-7.92,3.6-17.65-4,0,0-11.5-1.58-10.44-13.68,1.44-16.57,8.28-19.81,22-22.33s33.85-1.44,34.93-.72,4.68,14,4.68,15.84Z"/><path class="cls-7" d="M140.3,345.28c-9.18-3.78-12.69.81-17-1.89-3.6-2.25-8.14-2.06-9.55-1.94-8.78,5.06-10.31,14.23-9.9,20.3.54,7.83,8.1,7,8.1,7,1.35-19.18,12.15-24,12.15-24-11.61,8.1-9.18,25.12-9.18,25.12,6.75,4.86,13,2.16,13,2.16,1.35-21.61,13.23-25.12,13.23-25.12-13.5,10.53-10,26.2-10,26.2,9.18,3.24,19.17-.27,19.17-.27L156,352.3c0-.14-.09-.41-.18-.77-2,4.19-3.87,7.8-3.87,7.8S149.48,349.06,140.3,345.28Z"/><path class="cls-8" d="M131.76,367.43c0,2.46,1.67,4.47,3.75,4.49s2.56-2,2.58-4.45-.43-4.47-2.52-4.48S131.78,365,131.76,367.43Z"/><path class="cls-9" d="M135.94,371.06c.57-.12,1.32-.63,1.34-3.6a7,7,0,0,0-.4-2.81,1.3,1.3,0,0,0-1.32-.85,2.49,2.49,0,0,0-.53.06,3.53,3.53,0,0,0-2.46,3.58c0,2,1.31,3.66,2.95,3.67a2,2,0,0,0,.42,0Z"/><path class="cls-8" d="M116,363.92c-.36,2.44,1,4.66,3.08,5s2.82-1.6,3.18-4,.2-4.48-1.87-4.79S116.32,361.48,116,363.92Z"/><path class="cls-10" d="M119.58,368.1c.58,0,1.4-.44,1.84-3.38a7,7,0,0,0,0-2.84,1.3,1.3,0,0,0-1.18-1,2.52,2.52,0,0,0-.54,0,3.53,3.53,0,0,0-2.94,3.19c-.3,2,.78,3.81,2.4,4a2.09,2.09,0,0,0,.42,0Z"/><path class="cls-8" d="M104.28,360.88c-.25,2.27,1.1,4.27,3,4.49s2.55-1.58,2.8-3.84,0-4.15-1.89-4.36S104.53,358.61,104.28,360.88Z"/><path class="cls-11" d="M107.77,364.62c.53-.06,1.28-.45,1.58-3.18a6.5,6.5,0,0,0-.09-2.63,1.2,1.2,0,0,0-1.13-.9,2.25,2.25,0,0,0-.49,0,3.26,3.26,0,0,0-2.61,3c-.2,1.85.86,3.49,2.36,3.66a1.93,1.93,0,0,0,.39,0Z"/><path class="cls-12" d="M156.41,337.54s-8.64,6.12-25.21,3.6S105.64,323.86,111,309.45s16.56-21.61,22.69-36,5-26.65,15.49-41.05,28.45,84.63,29.17,86.07-16.92,24.49-16.92,24.49Z"/><path class="cls-13" d="M141.11,311c-2-15-7.43-18.64-8.91-25.42-1.93,2.85-4,5.47-6,8-4.35,5.54-8.45,10.78-11.1,17.84a20,20,0,0,0,1.3,17.49,21.9,21.9,0,0,0,11,9.13C132.32,334.59,143,325.36,141.11,311Z"/><path class="cls-14" d="M279,376.79s10.8,5,21.61.36c0,0,7.92,3.6,17.64-4,0,0,11.5-1.58,10.44-13.68-1.44-16.57-8.28-19.81-22-22.33s-33.85-1.44-34.93-.72-4.68,14-4.68,15.84Z"/><path class="cls-15" d="M290.41,345.28c9.18-3.78,12.69.81,17-1.89,3.6-2.25,8.14-2.06,9.55-1.94,8.78,5.06,10.32,14.23,9.9,20.3-.54,7.83-8.1,7-8.1,7-1.35-19.18-12.15-24-12.15-24,11.61,8.1,9.18,25.12,9.18,25.12-6.75,4.86-13,2.16-13,2.16-1.35-21.61-13.23-25.12-13.23-25.12,13.5,10.53,10,26.2,10,26.2-9.18,3.24-19.17-.27-19.17-.27l-5.67-20.53c0-.14.09-.41.18-.77,2,4.19,3.87,7.8,3.87,7.8S281.23,349.06,290.41,345.28Z"/><path class="cls-8" d="M298.95,367.43c0,2.46-1.67,4.47-3.75,4.49s-2.56-2-2.58-4.45S293,363,295.14,363,298.93,365,298.95,367.43Z"/><path class="cls-16" d="M294.77,371.06c-.57-.12-1.32-.63-1.34-3.6a7,7,0,0,1,.4-2.81,1.3,1.3,0,0,1,1.32-.85,2.51,2.51,0,0,1,.53.06,3.53,3.53,0,0,1,2.46,3.58c0,2-1.31,3.66-2.94,3.67a2,2,0,0,1-.42,0Z"/><path class="cls-8" d="M314.76,363.92c.36,2.44-1,4.66-3.08,5s-2.82-1.6-3.18-4-.2-4.48,1.87-4.79S314.39,361.48,314.76,363.92Z"/><path class="cls-17" d="M311.13,368.1c-.58,0-1.4-.44-1.83-3.38a7,7,0,0,1,0-2.84,1.3,1.3,0,0,1,1.18-1,2.5,2.5,0,0,1,.53,0A3.53,3.53,0,0,1,314,364c.3,2-.78,3.81-2.4,4a2.11,2.11,0,0,1-.42,0Z"/><path class="cls-8" d="M326.43,360.88c.25,2.27-1.1,4.27-3,4.49s-2.55-1.58-2.8-3.84,0-4.15,1.89-4.36S326.18,358.61,326.43,360.88Z"/><path class="cls-18" d="M322.94,364.62c-.53-.06-1.28-.45-1.58-3.18a6.49,6.49,0,0,1,.1-2.63,1.2,1.2,0,0,1,1.13-.9,2.26,2.26,0,0,1,.5,0,3.26,3.26,0,0,1,2.61,3c.2,1.85-.85,3.49-2.36,3.66a1.92,1.92,0,0,1-.39,0Z"/><path class="cls-19" d="M274.3,337.54s8.64,6.12,25.21,3.6,25.57-17.29,20.16-31.69-16.56-21.61-22.69-36-5-26.65-15.48-41.05S253.05,317,252.33,318.46s16.92,24.49,16.92,24.49Z"/><path class="cls-20" d="M289.6,311c2-15,7.43-18.64,8.91-25.42,1.93,2.85,4,5.47,6,8,4.35,5.54,8.45,10.78,11.1,17.84a20,20,0,0,1-1.3,17.49,21.9,21.9,0,0,1-11,9.13C298.39,334.59,287.73,325.36,289.6,311Z"/><path class="cls-21" d="M290.68,269.66c-1.08-38.35-20-49.15-22.15-72.38L215.08,204l-53.45-6.68c-2.16,23.23-21.07,34-22.15,72.38s15.12,71.84,15.12,71.84l56.72,19.45,3.75-2.15,3.75,2.15,56.72-19.45S291.76,308,290.68,269.66Z"/><path class="cls-22" d="M164.88,332.26s-26.47-59.65-15.12-83.67c0,0,12-16.32,22.69-9.18,14.58,9.72,18.91,23.23,17.29,45.42-1.67,22.83,3.78,56.66,3.78,56.66Z"/><path class="cls-23" d="M264.95,332.26s26.47-59.65,15.12-83.67c0,0-12-16.32-22.69-9.18-14.58,9.72-18.9,23.23-17.29,45.42,1.67,22.83-3.78,56.66-3.78,56.66Z"/><path class="cls-24" d="M200.8,283.16a13.82,13.82,0,0,1,4.86-8.1c-4.32,1.08-9.18,6.48-9.18,6.48-6.48,24.85-2.16,50.77-2.16,50.77l13.5,7C199.18,324.22,199.72,288.57,200.8,283.16Zm33-1.62s-4.86-5.4-9.18-6.48a13.84,13.84,0,0,1,4.86,8.1c1.08,5.4,1.62,41.05-7,56.18l13.5-7S240.26,306.39,233.77,281.54Z"/><path class="cls-25" d="M290.68,269.66c-1.08-38.35-20-49.15-22.15-72.38l-25.47,3.18a26.47,26.47,0,0,1-8.19,8c-10.49,6.1-28.21,4.33-38.62-.51a24.54,24.54,0,0,1-9-7.47l-25.66-3.21c-2.16,23.23-21.07,34-22.15,72.38s15.12,71.84,15.12,71.84l2.5.86,6.15-4.1s-22.15-47-20-73.46,22.69-47,22.69-47l17.28,4.86A36,36,0,0,0,204,237.79a11.48,11.48,0,0,0-2.9,7.56c0,6.86,6.29,12.42,14,12.42s14-5.56,14-12.42a11.5,11.5,0,0,0-3-7.62,36,36,0,0,0,20.46-15.06l17.28-4.86s20.53,20.53,22.69,47-20,73.46-20,73.46l6.24,4.16,2.68-.92S291.76,308,290.68,269.66Zm-75.75,50.6c-9.36,0-14.4-13.68-14.4-13.68l-1.08,27.37a37.31,37.31,0,0,0,2.52,4.32c1.08,1.44,2.16,4.32,3.6,5.4,1,.77,3,3.2,4.4,4.65a43.66,43.66,0,0,0-2.24,10.47l21.25-4c.2-2-3.45-6.65-7.27-10.07,2-2.93,5.23-7.58,6.19-9,1.44-2.16,1.8-6.48,1.8-6.48l1.8-15.49-1.44-7.2S224.29,320.26,214.93,320.26Z"/><path class="cls-26" d="M214.93,219.43c26.29,0,54.74-14,54.74-14l.36,0a45.85,45.85,0,0,1-1.49-8.08l-25.47,3.18a26.47,26.47,0,0,1-8.19,8c-10.49,6.1-28.21,4.33-38.62-.51a24.54,24.54,0,0,1-9-7.47l-25.66-3.21a46.46,46.46,0,0,1-1.81,9.19h0S188.64,219.43,214.93,219.43Z"/><path class="cls-27" d="M280,376.43a33.2,33.2,0,0,1-26.29.72s-14.4,4.32-24.49-2.16c0,0-10.8,1.62-15.84-5.94,0,0-4-40.15,30.25-43.75S300.53,353.38,280,376.43Z"/><path class="cls-28" d="M255,326.38s27.91,5,29.71,27.73-17.83,23.77-28.81,21.61c0,0,1.26-18.19,8.82-27.19,0,0-11.16,4.32-12.06,26.29,0,0-13.14,4.5-22-2.16,0,0-.54-22.33,9.18-33,0,0-12.24,4.5-12.06,31.51,0,0-8.11,1.82-12.11-2.47a7.16,7.16,0,0,1-.5-.59s-1.08-24.85,11.88-34.93S255,326.38,255,326.38Z"/><path class="cls-29" d="M226.31,339c1.29-8.27,14.1-13.14,28.62-10.88s25.24,10.8,24,19.07c-.84,5.4-7.13,4.76-15.44,3,.4-.58.82-1.14,1.26-1.66a10.44,10.44,0,0,0-2.32,1.44c-4.14-.88-8.72-2-13.35-2.7-5.14-.8-9.64-1-13.26-1.38a25.74,25.74,0,0,1,4.08-6.18s-3.2,1.18-6.3,5.94C228.34,345,225.58,343.67,226.31,339Z"/><path class="cls-30" d="M270.59,368.51s.54,8.1-1.62,8.78-4.86.81-4.46-7Z"/><path class="cls-31" d="M246.56,368.37s-.14,8.78-3.38,9.32-3.78-4.59-2.83-8.78Z"/><path class="cls-32" d="M220.09,364.19l5.67,1.08s-.67,7.83-3.65,7.43S220.09,364.19,220.09,364.19Z"/><path class="cls-8" d="M263.36,368.89c-.61,2.72.77,5.34,3.07,5.85s3.3-1.57,3.91-4.29.59-5-1.71-5.55S264,366.17,263.36,368.89Z"/><path class="cls-33" d="M267.1,373.9c.66,0,1.61-.38,2.35-3.65a7.92,7.92,0,0,0,.23-3.2,1.47,1.47,0,0,0-1.25-1.25,2.76,2.76,0,0,0-.6-.07,4,4,0,0,0-3.57,3.36c-.49,2.22.57,4.35,2.37,4.75a2.14,2.14,0,0,0,.47.06Z"/><path class="cls-8" d="M218.62,364.1c-.28,2.77,1.39,5.21,3.74,5.45s3.09-2,3.37-4.72,0-5.07-2.35-5.31S218.91,361.33,218.62,364.1Z"/><path class="cls-34" d="M222.93,368.63c.65-.08,1.56-.57,1.9-3.91a7.93,7.93,0,0,0-.15-3.21,1.47,1.47,0,0,0-1.39-1.09,2.7,2.7,0,0,0-.6,0,4,4,0,0,0-3.15,3.76c-.23,2.26,1.08,4.25,2.92,4.44a2.09,2.09,0,0,0,.48,0Z"/><path class="cls-8" d="M238.52,367.08c-.68,3,.86,6,3.44,6.57s3.71-1.77,4.39-4.81.66-5.65-1.92-6.23S239.2,364,238.52,367.08Z"/><path class="cls-35" d="M242.72,372.71c.73,0,1.81-.42,2.63-4.1a8.89,8.89,0,0,0,.26-3.59,1.65,1.65,0,0,0-1.4-1.4,3.22,3.22,0,0,0-.67-.07,4.47,4.47,0,0,0-4,3.77c-.56,2.49.64,4.88,2.66,5.33a2.45,2.45,0,0,0,.53.06Z"/><path class="cls-36" d="M150.92,376.43a33.2,33.2,0,0,0,26.29.72s14.4,4.32,24.49-2.16c0,0,10.8,1.62,15.84-5.94,0,0,4-40.15-30.25-43.75S130.4,353.38,150.92,376.43Z"/><path class="cls-37" d="M175.95,326.38s-27.91,5-29.71,27.73,17.82,23.77,28.81,21.61c0,0-1.26-18.19-8.82-27.19,0,0,11.16,4.32,12.06,26.29,0,0,13.14,4.5,22-2.16,0,0,.54-22.33-9.18-33,0,0,12.24,4.5,12.06,31.51,0,0,8.11,1.82,12.11-2.47a7.36,7.36,0,0,0,.5-.59s1.08-24.85-11.88-34.93S175.95,326.38,175.95,326.38Z"/><path class="cls-38" d="M204.61,339c-1.29-8.27-14.1-13.14-28.62-10.88s-25.24,10.8-24,19.07c.84,5.4,7.13,4.76,15.44,3-.4-.58-.81-1.14-1.25-1.66a10.46,10.46,0,0,1,2.32,1.44c4.14-.88,8.72-2,13.35-2.7,5.14-.8,9.64-1,13.26-1.38a25.73,25.73,0,0,0-4.08-6.18s3.2,1.18,6.31,5.94C202.58,345,205.35,343.67,204.61,339Z"/><path class="cls-39" d="M160.33,368.51s-.54,8.1,1.62,8.78,4.86.81,4.46-7Z"/><path class="cls-40" d="M184.37,368.37s.13,8.78,3.37,9.32,3.78-4.59,2.84-8.78Z"/><path class="cls-41" d="M210.83,364.19l-5.67,1.08s.68,7.83,3.65,7.43S210.83,364.19,210.83,364.19Z"/><path class="cls-8" d="M167.56,368.89c.61,2.72-.77,5.34-3.07,5.85s-3.31-1.57-3.91-4.29-.59-5,1.71-5.55S167,366.17,167.56,368.89Z"/><path class="cls-42" d="M163.82,373.9c-.66,0-1.61-.38-2.35-3.65a7.94,7.94,0,0,1-.23-3.2,1.47,1.47,0,0,1,1.25-1.25,2.75,2.75,0,0,1,.6-.07,4,4,0,0,1,3.57,3.36c.49,2.22-.57,4.35-2.37,4.75a2.16,2.16,0,0,1-.47.06Z"/><path class="cls-8" d="M212.3,364.1c.28,2.77-1.39,5.21-3.74,5.45s-3.1-2-3.38-4.72,0-5.07,2.36-5.31S212,361.33,212.3,364.1Z"/><path class="cls-43" d="M208,368.63c-.65-.08-1.56-.57-1.9-3.91a7.86,7.86,0,0,1,.15-3.21,1.47,1.47,0,0,1,1.39-1.09,2.71,2.71,0,0,1,.6,0,4,4,0,0,1,3.15,3.76c.23,2.26-1.08,4.25-2.92,4.44a2.07,2.07,0,0,1-.47,0Z"/><path class="cls-8" d="M192.4,367.08c.68,3-.86,6-3.44,6.57s-3.71-1.77-4.39-4.81-.67-5.65,1.92-6.23S191.72,364,192.4,367.08Z"/><path class="cls-44" d="M188.21,372.71c-.74,0-1.81-.42-2.63-4.1a8.92,8.92,0,0,1-.26-3.59,1.65,1.65,0,0,1,1.4-1.4,3.19,3.19,0,0,1,.67-.07,4.47,4.47,0,0,1,4,3.77c.56,2.49-.64,4.88-2.66,5.33a2.45,2.45,0,0,1-.53.06Z"/><path class="cls-45" d="M238.2,208.95a22.88,22.88,0,0,1-45.56.91l-9.37-1.19c0,.24,0,.48,0,.72,0,14.89,14.39,27,32.14,27s32.14-12.07,32.14-27c0-.64,0-1.29-.09-1.92Z"/><path class="cls-46" d="M215.38,235.54c-16.42,0-29.85-10.86-30.49-24.41l6.45.82a24.35,24.35,0,0,0,48.22-1l6.34-1s0,.09,0,.14c0,14-13.69,25.43-30.52,25.43Z"/><ellipse class="cls-47" cx="215.11" cy="243.99" rx="12.96" ry="11.25"/><ellipse class="cls-48" cx="215.11" cy="244.62" rx="12.14" ry="10.55"/><ellipse class="cls-49" cx="215.11" cy="246.2" rx="10.87" ry="8.78"/><ellipse class="cls-50" cx="215.11" cy="247.14" rx="9.46" ry="7.64"/><path class="cls-51" d="M299.94,61.7S329.11,86,342.07,147c2.29,10.8,6.53,22.13,15,29.61,15.76,13.89,38.72,6.94,52.41-6.36,22-21.35,21.2-61.53,4.58-85.74C385.64,43.16,329.65,28.75,274,30.37Z"/><path class="cls-52" d="M378.62,179.58c10.24,0,21.39-4.9,29.84-13.1,9.73-9.45,15.35-23.55,15.84-39.69.46-15.31-3.79-30.66-11.66-42.11-31.67-46.1-94.57-53-129.26-53H281.5l21.7,26.22c3,2.59,30.36,27.63,42.94,86.87,2.74,12.89,7.33,22,14.05,28a27,27,0,0,0,18.42,6.84Z"/><path class="cls-53" d="M129.74,61.7S100.57,86,87.61,147c-2.29,10.8-6.53,22.13-15,29.61-15.76,13.89-38.72,6.94-52.41-6.36-22-21.35-21.2-61.53-4.58-85.74C44,43.16,100,28.75,155.67,30.37Z"/><path class="cls-54" d="M51.06,179.58c-10.24,0-21.39-4.9-29.84-13.1C11.5,157,5.87,142.94,5.38,126.79,4.92,111.48,9.17,96.13,17,84.68c31.67-46.1,94.57-53,129.26-53h1.88l-21.7,26.22c-3,2.59-30.36,27.63-42.94,86.87-2.74,12.89-7.33,22-14.05,28a27.05,27.05,0,0,1-18.42,6.84Z"/><path class="cls-55" d="M67.24,44.46c-21,8.7-39,21.74-51.64,40.1a63.88,63.88,0,0,0-5.54,9.9,39.8,39.8,0,1,0,57.18-50ZM28.67,130.12A12.48,12.48,0,1,0,41.15,142.6,12.48,12.48,0,0,0,28.67,130.12Z"/><path class="cls-56" d="M221.77,6.25a23.33,23.33,0,0,1,1.15,5c-3.53-5.63-10.15-7.84-10.15-7.84,3.6,3.6,4,10.44,4,10.44-6.12-11.52-20.89-9-20.89-9,9.72.72,14.76,9,14.76,9C203,8,192.24,11.29,192.24,11.29c5.76-.72,13,1.8,13,1.8l1.62,2.52,17.83-.36C225.91,8.77,221.77,6.25,221.77,6.25Z"/><path class="cls-57" d="M312.13,106.36s-3.24-8.28-5.76-24.49S288.36,12,214.54,12h-.33c-73.82,0-89.3,53.65-91.83,69.86s-5.76,24.49-5.76,24.49c-9.72,22.33-19.08,45,13,77.06,30.45,30.45,79.76,31.64,84.59,31.69h.39c4.83,0,54.14-1.23,84.59-31.69C331.21,151.37,321.85,128.68,312.13,106.36Z"/><path class="cls-58" d="M214.48,201.6h-.27c-5.34,0-53-1.26-82.46-29.5-13.82-13.24-20.78-25.82-21.25-38.43-.43-11.54,4.54-22.49,8.93-32.14l0-.05,0-.05c.14-.34,3.39-8.42,5.93-24.08,1.75-10.76,14.24-64.44,88.8-64.44h.33c74.56,0,87.05,53.68,88.8,64.44,2.54,15.66,5.8,23.74,5.94,24.08l0,.05,0,.05c4.39,9.66,9.37,20.6,8.93,32.14-.47,12.62-7.43,25.19-21.25,38.43-29.47,28.24-77.12,29.45-82.46,29.5Z"/><path class="cls-59" d="M214.18,215.1h.39c4.83,0,54.14-1.23,84.59-31.69,11.33-11.33,17.48-21.49,20.27-30.88l-.08-.09S301,209.16,214.57,209.16s-105.87-60.5-105.87-60.5l-.31.24c2.2,10.39,8.39,21.7,21.2,34.51C160,213.87,209.35,215.06,214.18,215.1Z"/><path class="cls-60" d="M136.07,97.71s6.84-48.25,40-61.22l13.32,5.76s6.12,68.78-23.77,73.1Z"/><path class="cls-61" d="M292.15,97.71s-6.84-48.25-40-61.22l-13.33,5.76s-6.12,68.78,23.77,73.1Z"/><path class="cls-62" d="M214.57,183.17l-16.2-6.68s4.47,23.14,16.2,23.14,16.21-23.14,16.21-23.14Z"/><path class="cls-63" d="M176,153.53c-4.14-1.26-11-9.54-17.28-14s-14-2.16-14-2.16c5.4-1.08,14.44,1.91,19.81,10.81,6.3,10.44,18.54,12.06,24.85,16.56S202,185.22,202,185.22l-6.3-23.77S180.18,154.79,176,153.53Zm94.26-14c-6.3,4.5-13.14,12.78-17.29,14s-19.62,7.92-19.62,7.92l-6.3,23.77s6.3-16,12.6-20.53,18.55-6.12,24.85-16.56c5.37-8.9,14.4-11.89,19.81-10.81C284.34,137.32,276.6,135,270.3,139.49Z"/><path class="cls-64" d="M124.57,138.41a31.26,31.26,0,0,0,7.65,1.76c10.23,1.06,19.31-2.83,22.36-9a37.09,37.09,0,0,1-21.1,7.7A41.32,41.32,0,0,1,124.57,138.41Z"/><path class="cls-65" d="M307.26,138.41a31.26,31.26,0,0,1-7.65,1.76c-10.23,1.06-19.31-2.83-22.36-9a37.09,37.09,0,0,0,21.1,7.7A41.34,41.34,0,0,0,307.26,138.41Z"/><path class="cls-66" d="M214.57,194.94c-7,0-11.77-5.4-16.55-18.73-2.73-7.61-8.59-15.84-8.59-15.84l24.82-6.48,25.46,6.48s-5.87,8.24-8.59,15.84C226.35,189.54,221.57,194.94,214.57,194.94Z"/><path class="cls-67" d="M198,176.21c4.78,13.32,9.55,18.73,16.55,18.73s11.78-5.4,16.55-18.73c2.73-7.61,8.59-15.84,8.59-15.84l-8.87-2.26L214.32,162l-16.38-3.9-8.51,2.22S195.29,168.61,198,176.21Zm14.92-7.6c-.54,2.26,1.36,20.29,1.36,20.29l0-.29v.29s1.9-18,1.36-20.29c8.12-.4,17.52-3.74,11.89,10.84C222.27,193.22,215.66,194,214.32,194s-7.94-.83-13.26-14.59C195.44,164.88,204.82,168.22,212.94,168.62Z"/><path class="cls-68" d="M214.44,162.64l-23.09-1.55,2.83,4.19s4.46-.14,20.12-.14l.13-.09.13.09c15.67,0,20.12.14,20.12.14l2.84-4.19Z"/><path class="cls-69" d="M217,170.68c0,13.91-2.57,20-2.57,20l-.07.06-.07-.06s-2.57-6.08-2.57-20c0,0-9,2-7.16,9.86s6.75,12.56,9.59,12.56l.21-.13.21.13c2.84,0,7.7-4.73,9.59-12.56S217,170.68,217,170.68Z"/><path class="cls-70" d="M215.29,97a39.81,39.81,0,0,0-5.81.35,45.5,45.5,0,0,0-6.28,1.32c-18.43,5.2-38.33,22-38.33,42.62,0,23.41,50.05,22.33,50.05,22.33S265,164.69,265,141.29A34.82,34.82,0,0,0,260,124C251.29,108.83,233.13,97.19,215.29,97Z"/><path class="cls-71" d="M215.89,159.4H214c-4.65,0-45.43-.56-45.43-20.14S187.72,104,205.21,99.57c19.63-5,41.71,6.69,51.57,23.82a32.06,32.06,0,0,1,4.53,15.87c0,8-6.71,13.83-19.94,17.2A112.42,112.42,0,0,1,215.89,159.4Z"/><path class="cls-72" d="M186.21,118.69s6.75,26.2,27.82,26.2,28.63-26.74,28.63-26.74Z"/><path class="cls-73" d="M214.05,140.57c-16.36,0-23.3-13.45-24.91-17.17l50.55-.37c-1.78,3.83-9.3,17.54-25.64,17.54Z"/><path class="cls-74" d="M222.64,117.73l16.64-5.32a7.21,7.21,0,0,1-.63-.72A34.25,34.25,0,0,0,225,103.21a33.23,33.23,0,0,0-33.35,6.94c-.16.15-2.28,2.36-2.18,2.26l16.17,5.32c1.25,2.38,2.53,4.74,2.53,4.74l5.94-2,5.94,2S221.39,120.11,222.64,117.73Z"/><path class="cls-75" d="M219.59,121.17l-5.09-1.67-.33-.11-.34.11-5.09,1.67c-.48-.89-1.3-2.42-2.1-3.94l-.2-.38-.41-.14-14.56-4.79,1-1a32.13,32.13,0,0,1,21.79-8.48,31.75,31.75,0,0,1,10.48,1.76,33.81,33.81,0,0,1,12.68,7.67l-15.06,4.81-.42.13-.21.39c-.8,1.52-1.62,3.05-2.1,3.94Z"/><path class="cls-8" d="M238.61,111.94a36.38,36.38,0,0,0-9.45.27c-5.94.81-10.67,2-15,2s-9-1.22-15-2a36.39,36.39,0,0,0-9.45-.27S206,120,212.37,122.84a3.21,3.21,0,0,0,1.12,1,1.19,1.19,0,0,1,1.35,0,3.2,3.2,0,0,0,1.12-1C222.3,120,238.61,111.94,238.61,111.94Z"/><path class="cls-76" d="M242.66,118.25a8.72,8.72,0,0,0-3.92-6.31s-20.21.68-24.5,7.65c-4.3-7-24.51-7.65-24.51-7.65a8.8,8.8,0,0,0-4,6.3l23.54,10.22,4.91-1.64,4.88,1.69Z"/><path class="cls-77" d="M230.06,119.32c-8.28,2.7-12.06,3.78-15.85,3.78s-7.56-1.08-15.84-3.78-12.6-1.08-12.6-1.08c6.12,17.1,28.45,17.82,28.45,17.82s22.33-.72,28.45-17.82C242.66,118.24,238.34,116.62,230.06,119.32Z"/><path class="cls-78" d="M214.21,136.06s21.21-.69,28-16.56c-2.17,3.59-8,10.5-13.19,12.24-5.94,2-12.06,1.8-12.06-2.7,0-3.86,10.31-8.5,13.26-9.76l-.11,0c-8.28,2.7-12.06,3.78-15.85,3.78s-7.39-1-15.25-3.59c3.49,1.52,12.73,5.88,12.73,9.53,0,4.5-6.12,4.68-12.06,2.7s-12.6-10.62-13.86-13.5C191.88,135.34,214.21,136.06,214.21,136.06Z"/><path class="cls-79" d="M225.55,105.89c0,2.23-5,1.34-11.25,1.34s-11.25.88-11.25-1.34,5-4,11.25-4S225.55,103.66,225.55,105.89Z"/><path class="cls-8" d="M190.26,121.48a21.85,21.85,0,0,1,2.85.61c-.15.41-.67,2.6,4.35,5.51,4.55,2.64,7.06,1.58,7.84,1.09,1.2,1,1.88,1.61,1.88,1.61C201.07,119,190.26,121.48,190.26,121.48Zm48.07,0s-10.8-2.52-16.93,8.82c0,0,.69-.66,1.89-1.61.77.49,3.29,1.55,7.84-1.09,5-2.92,4.51-5.1,4.35-5.51A21.8,21.8,0,0,1,238.34,121.48Z"/><path class="cls-80" d="M287.12,79.12a25.13,25.13,0,0,0-19.4-9.5s-6.93-.63-13,5.76a17,17,0,0,1,13.5-7.56A21.39,21.39,0,0,1,287.12,79.12Z"/><path class="cls-81" d="M169.65,49.54s1.2,1.85,4.62.21,8.13-3.5,13.62-5.56c4.67-1.76,0-10.81-9.66-8.41S167.67,47.9,169.65,49.54Z"/><path class="cls-82" d="M171.6,49.4a1.48,1.48,0,0,1-1.11-.45l-.07-.09-.12-.11c-.32-.26-.74-1.7-.26-3.83a11,11,0,0,1,8.45-8.15,11.71,11.71,0,0,1,3.35-.36c4.22.19,6.53,2.9,6.83,4.76a1.71,1.71,0,0,1-1.12,2.06c-5,1.87-10.06,3.84-13.71,5.6a4.81,4.81,0,0,1-2.23.58Z"/><path class="cls-83" d="M179.08,38.07a12.6,12.6,0,0,1,3.62-.39,8.79,8.79,0,0,1,5.35,2,7.57,7.57,0,0,0-6.22-3.24,11.71,11.71,0,0,0-3.35.36A11,11,0,0,0,170,44.91a7.66,7.66,0,0,0-.18,2.49c0-.17.06-.35.1-.53A11.84,11.84,0,0,1,179.08,38.07Z"/><path class="cls-84" d="M169.65,49.54s1.2,1.85,4.62.21,8.13-3.5,13.62-5.56c2.33-.88,2.33-3.58.54-5.75-.9,2-3.16,4.71-8.8,6.41-6.5,2-9.49,1.4-10.76.82C168.64,47.48,169,49,169.65,49.54Z"/><path class="cls-85" d="M258.58,49.54s-1.2,1.85-4.62.21-8.13-3.5-13.62-5.56c-4.67-1.76,0-10.81,9.65-8.41S260.56,47.9,258.58,49.54Z"/><path class="cls-86" d="M256.63,49.4a1.47,1.47,0,0,0,1.11-.45l.07-.09.12-.11c.32-.26.74-1.7.26-3.83a11,11,0,0,0-8.45-8.15,11.71,11.71,0,0,0-3.35-.36c-4.21.19-6.53,2.9-6.83,4.76a1.72,1.72,0,0,0,1.13,2.06c5,1.87,10.06,3.84,13.7,5.6a4.82,4.82,0,0,0,2.23.58Z"/><path class="cls-87" d="M249.15,38.07a12.59,12.59,0,0,0-3.61-.39,8.78,8.78,0,0,0-5.35,2,7.56,7.56,0,0,1,6.21-3.24,11.71,11.71,0,0,1,3.35.36,11,11,0,0,1,8.45,8.15,7.69,7.69,0,0,1,.18,2.49c0-.17-.06-.35-.1-.53A11.84,11.84,0,0,0,249.15,38.07Z"/><path class="cls-88" d="M258.58,49.54s-1.2,1.85-4.62.21-8.13-3.5-13.62-5.56c-2.33-.88-2.33-3.58-.54-5.75.9,2,3.16,4.71,8.8,6.41,6.5,2,9.5,1.4,10.76.82C259.59,47.48,259.26,49,258.58,49.54Z"/><path class="cls-8" d="M267,72.69c16.24,0,25.29,12.74,24.67,24.48a9.68,9.68,0,0,0,4.5-1.43,13,13,0,0,1-4.93,4.68c0,.18-.07.36-.12.54-3.06,12.6-13.5,13.5-13.5,13.5l-29-20.71C248.63,74.13,267,72.69,267,72.69Z"/><path class="cls-89" d="M277.9,113.34c1.83-.3,9.64-2.15,12.18-12.64,0-.1,0-.21.07-.31l0-.21.1-.46.41-.24a16.67,16.67,0,0,0,2-1.35c-.3,0-.61.08-.94.1l-1.2.08.06-1.2a22,22,0,0,0-6.08-16.24c-3.08-3.24-8.6-7.1-17.48-7.12-1.13.1-17,1.84-17.33,19.45l28.19,20.14Z"/><path class="cls-90" d="M266.8,75c-.85.08-9.55,1-14.66,8.24,4.57-8.33,14-9.37,14.89-9.45,8.88,0,14.4,3.87,17.48,7.12a22.45,22.45,0,0,1,4.17,6.21,23.82,23.82,0,0,0-3.4-4.59C282,79.06,276.19,75,266.8,75Z"/><path class="cls-91" d="M248.27,99.51s1.08,16.75,20.16,16.75,20-17.29,20-17.29-.9-21.25-22-21.25C266.46,77.73,248.27,78.09,248.27,99.51Z"/><circle class="cls-92" cx="266.29" cy="97.82" r="17.57"/><circle class="cls-93" cx="266.29" cy="97.82" r="16.12"/><path class="cls-94" d="M266.29,81.7a16.12,16.12,0,0,1,16.12,16.12,15.94,15.94,0,0,1-.16,2.23c-1.94-1-6.33-2.23-16-2.23-9.29,0-13.77,1.62-15.86,2.91a16.11,16.11,0,0,1,15.86-19Z"/><circle class="cls-8" cx="266.29" cy="97.82" r="11.6"/><circle class="cls-95" cx="266.29" cy="97.82" r="9.77"/><path class="cls-96" d="M265.78,87.6c-1.4,2.79,1.79,2,4.61,3.44s4.1,4.44,5.51,1.65a5.66,5.66,0,1,0-10.12-5.09Z"/><circle class="cls-97" cx="257.97" cy="105.8" r="3.97"/><circle class="cls-98" cx="255.88" cy="94.58" r="1.96"/><circle class="cls-99" cx="282.67" cy="98.5" r="3.36"/><path class="cls-100" d="M141,79.12a25.13,25.13,0,0,1,19.4-9.5s6.93-.63,13,5.76a17,17,0,0,0-13.5-7.56A21.39,21.39,0,0,0,141,79.12Z"/><path class="cls-8" d="M161.1,72.69c-16.24,0-25.29,12.74-24.67,24.48a9.67,9.67,0,0,1-4.49-1.43,13,13,0,0,0,4.93,4.68c0,.18.07.36.11.54,3.06,12.6,13.5,13.5,13.5,13.5l29-20.71C179.46,74.13,161.1,72.69,161.1,72.69Z"/><path class="cls-101" d="M150.19,113.34c-1.83-.3-9.63-2.15-12.18-12.64,0-.1,0-.21-.07-.31l0-.21-.1-.46-.41-.24a16.59,16.59,0,0,1-2-1.35c.3,0,.61.08.94.1l1.2.08-.06-1.2a22.05,22.05,0,0,1,6.08-16.24c3.07-3.24,8.6-7.1,17.47-7.12,1.13.1,17,1.84,17.34,19.45l-28.19,20.14Z"/><path class="cls-102" d="M161.29,75c.85.08,9.55,1,14.66,8.24-4.57-8.33-14-9.37-14.89-9.45-8.87,0-14.4,3.87-17.47,7.12a22.41,22.41,0,0,0-4.17,6.21,23.7,23.7,0,0,1,3.4-4.59C146.06,79.06,151.91,75,161.29,75Z"/><path class="cls-103" d="M179.82,99.51s-1.08,16.75-20.17,16.75-20-17.29-20-17.29.9-21.25,22-21.25C161.64,77.73,179.82,78.09,179.82,99.51Z"/><circle class="cls-104" cx="161.81" cy="97.82" r="17.57"/><circle class="cls-105" cx="161.81" cy="97.82" r="16.12"/><path class="cls-106" d="M161.81,81.7a16.12,16.12,0,0,0-16.12,16.12,16.41,16.41,0,0,0,.16,2.23c1.94-1,6.33-2.23,16-2.23,9.29,0,13.77,1.62,15.86,2.91a16.11,16.11,0,0,0-15.86-19Z"/><circle class="cls-8" cx="161.81" cy="97.82" r="11.6"/><circle class="cls-107" cx="161.81" cy="97.82" r="9.77"/><path class="cls-108" d="M162.32,87.6c1.41,2.79-1.79,2-4.61,3.44s-4.1,4.44-5.51,1.65a5.66,5.66,0,1,1,10.12-5.09Z"/><circle class="cls-109" cx="170.12" cy="105.8" r="3.97"/><circle class="cls-110" cx="172.21" cy="94.58" r="1.96"/><circle class="cls-99" cx="145.43" cy="98.5" r="3.36"/><path class="cls-111" d="M244.37,129.44h0Zm4-2.57c2.52-1.35,6.44-2.54,12.08-1.91l0-.44c-11.42-1.29-16,4.83-16.1,4.91l.35.26a8,8,0,0,1,.86-.9A13.56,13.56,0,0,1,248.34,126.87Zm14.53,3.27.12-.42a26.86,26.86,0,0,0-4.15-.84c-8.34-1-12.51,3-12.54,3.06h0l.3.31a7.29,7.29,0,0,1,.74-.58,12.77,12.77,0,0,1,2.27-1.24,17.9,17.9,0,0,1,9.17-1.11A26,26,0,0,1,262.86,130.14Zm-7.94,3.38a13.23,13.23,0,0,0-6.92.8l.19.39a8.49,8.49,0,0,1,1.77-.56,14.82,14.82,0,0,1,4.91-.2,21.7,21.7,0,0,1,9.45,3.71l.24-.37A22.12,22.12,0,0,0,254.92,133.52Z"/><path class="cls-112" d="M185,129.44Zm-1.21-.64a7.82,7.82,0,0,1,.86.9l.35-.26c-.05-.08-4.68-6.21-16.1-4.91l0,.44c5.64-.64,9.56.56,12.08,1.91A13.58,13.58,0,0,1,183.74,128.79Zm-13.21.52a17.9,17.9,0,0,1,9.17,1.11,12.75,12.75,0,0,1,2.27,1.24,6.87,6.87,0,0,1,.74.58l.3-.31h0s-4.2-4-12.54-3.06a26.81,26.81,0,0,0-4.15.84l.12.42A26,26,0,0,1,170.54,129.31Zm-5.78,8,.24.37a21.71,21.71,0,0,1,9.45-3.71,14.83,14.83,0,0,1,4.91.2,8.55,8.55,0,0,1,1.77.56l.2-.39a13.24,13.24,0,0,0-6.92-.8A22.13,22.13,0,0,0,164.76,137.29Z"/></g></g></svg>